<mxfile host="app.diagrams.net" modified="2022-02-18T13:38:15.475Z" agent="5.0 (X11)" etag="PDDj6SmHyiIYtdJ9LndA" version="16.5.6" type="github">
  <diagram id="YAegzc98hFNZjoe-a_ai" name="Page-1">
    <mxGraphModel dx="1102" dy="575" grid="1" gridSize="10" guides="1" tooltips="1" connect="1" arrows="1" fold="1" page="1" pageScale="1" pageWidth="850" pageHeight="1100" math="0" shadow="0">
      <root>
        <mxCell id="0" />
        <mxCell id="1" parent="0" />
        <mxCell id="EQDM87N76zZjlXknVHCu-3" value="" style="rounded=0;whiteSpace=wrap;html=1;" vertex="1" parent="1">
          <mxGeometry x="478.68" y="210" width="642.65" height="900" as="geometry" />
        </mxCell>
        <mxCell id="EQDM87N76zZjlXknVHCu-22" style="edgeStyle=orthogonalEdgeStyle;rounded=0;orthogonalLoop=1;jettySize=auto;html=1;" edge="1" parent="1" source="EQDM87N76zZjlXknVHCu-1" target="EQDM87N76zZjlXknVHCu-12">
          <mxGeometry relative="1" as="geometry">
            <Array as="points">
              <mxPoint x="423" y="335" />
            </Array>
          </mxGeometry>
        </mxCell>
        <mxCell id="EQDM87N76zZjlXknVHCu-23" style="edgeStyle=orthogonalEdgeStyle;rounded=0;orthogonalLoop=1;jettySize=auto;html=1;" edge="1" parent="1" source="EQDM87N76zZjlXknVHCu-1" target="EQDM87N76zZjlXknVHCu-13">
          <mxGeometry relative="1" as="geometry">
            <Array as="points">
              <mxPoint x="423" y="415" />
            </Array>
          </mxGeometry>
        </mxCell>
        <mxCell id="EQDM87N76zZjlXknVHCu-29" style="edgeStyle=orthogonalEdgeStyle;rounded=0;orthogonalLoop=1;jettySize=auto;html=1;" edge="1" parent="1" source="EQDM87N76zZjlXknVHCu-1" target="EQDM87N76zZjlXknVHCu-28">
          <mxGeometry relative="1" as="geometry">
            <Array as="points">
              <mxPoint x="423" y="505" />
            </Array>
          </mxGeometry>
        </mxCell>
        <mxCell id="EQDM87N76zZjlXknVHCu-31" value="" style="edgeStyle=orthogonalEdgeStyle;rounded=0;orthogonalLoop=1;jettySize=auto;html=1;" edge="1" parent="1" source="EQDM87N76zZjlXknVHCu-1" target="EQDM87N76zZjlXknVHCu-30">
          <mxGeometry relative="1" as="geometry">
            <Array as="points">
              <mxPoint x="423" y="685" />
            </Array>
          </mxGeometry>
        </mxCell>
        <mxCell id="EQDM87N76zZjlXknVHCu-33" style="edgeStyle=orthogonalEdgeStyle;rounded=0;orthogonalLoop=1;jettySize=auto;html=1;" edge="1" parent="1" source="EQDM87N76zZjlXknVHCu-1" target="EQDM87N76zZjlXknVHCu-32">
          <mxGeometry relative="1" as="geometry">
            <Array as="points">
              <mxPoint x="423" y="775" />
            </Array>
          </mxGeometry>
        </mxCell>
        <mxCell id="EQDM87N76zZjlXknVHCu-35" style="edgeStyle=orthogonalEdgeStyle;rounded=0;orthogonalLoop=1;jettySize=auto;html=1;" edge="1" parent="1" source="EQDM87N76zZjlXknVHCu-1" target="EQDM87N76zZjlXknVHCu-34">
          <mxGeometry relative="1" as="geometry">
            <Array as="points">
              <mxPoint x="423" y="875" />
            </Array>
          </mxGeometry>
        </mxCell>
        <mxCell id="EQDM87N76zZjlXknVHCu-37" style="edgeStyle=orthogonalEdgeStyle;rounded=0;orthogonalLoop=1;jettySize=auto;html=1;" edge="1" parent="1" source="EQDM87N76zZjlXknVHCu-1" target="EQDM87N76zZjlXknVHCu-36">
          <mxGeometry relative="1" as="geometry">
            <Array as="points">
              <mxPoint x="423" y="255" />
            </Array>
          </mxGeometry>
        </mxCell>
        <mxCell id="EQDM87N76zZjlXknVHCu-39" style="edgeStyle=orthogonalEdgeStyle;rounded=0;orthogonalLoop=1;jettySize=auto;html=1;entryX=0;entryY=0.5;entryDx=0;entryDy=0;" edge="1" parent="1">
          <mxGeometry relative="1" as="geometry">
            <mxPoint x="423.0000000000002" y="581" as="sourcePoint" />
            <mxPoint x="970" y="595" as="targetPoint" />
            <Array as="points">
              <mxPoint x="423" y="595" />
            </Array>
          </mxGeometry>
        </mxCell>
        <mxCell id="EQDM87N76zZjlXknVHCu-41" style="edgeStyle=orthogonalEdgeStyle;rounded=0;orthogonalLoop=1;jettySize=auto;html=1;entryX=0.5;entryY=1;entryDx=0;entryDy=0;" edge="1" parent="1" source="EQDM87N76zZjlXknVHCu-1" target="EQDM87N76zZjlXknVHCu-40">
          <mxGeometry relative="1" as="geometry">
            <Array as="points">
              <mxPoint x="740" y="560" />
            </Array>
          </mxGeometry>
        </mxCell>
        <mxCell id="EQDM87N76zZjlXknVHCu-62" style="edgeStyle=orthogonalEdgeStyle;rounded=0;orthogonalLoop=1;jettySize=auto;html=1;entryX=0;entryY=0.5;entryDx=0;entryDy=0;" edge="1" parent="1" source="EQDM87N76zZjlXknVHCu-1" target="EQDM87N76zZjlXknVHCu-58">
          <mxGeometry relative="1" as="geometry">
            <Array as="points">
              <mxPoint x="700" y="560" />
              <mxPoint x="700" y="721" />
            </Array>
          </mxGeometry>
        </mxCell>
        <mxCell id="EQDM87N76zZjlXknVHCu-63" style="edgeStyle=orthogonalEdgeStyle;rounded=0;orthogonalLoop=1;jettySize=auto;html=1;" edge="1" parent="1" source="EQDM87N76zZjlXknVHCu-1" target="EQDM87N76zZjlXknVHCu-60">
          <mxGeometry relative="1" as="geometry">
            <Array as="points">
              <mxPoint x="700" y="560" />
              <mxPoint x="700" y="790" />
            </Array>
          </mxGeometry>
        </mxCell>
        <mxCell id="EQDM87N76zZjlXknVHCu-64" style="edgeStyle=orthogonalEdgeStyle;rounded=0;orthogonalLoop=1;jettySize=auto;html=1;" edge="1" parent="1" source="EQDM87N76zZjlXknVHCu-1" target="EQDM87N76zZjlXknVHCu-61">
          <mxGeometry relative="1" as="geometry">
            <Array as="points">
              <mxPoint x="700" y="560" />
              <mxPoint x="700" y="885" />
            </Array>
          </mxGeometry>
        </mxCell>
        <mxCell id="EQDM87N76zZjlXknVHCu-73" style="edgeStyle=orthogonalEdgeStyle;rounded=0;orthogonalLoop=1;jettySize=auto;html=1;" edge="1" parent="1" source="EQDM87N76zZjlXknVHCu-1" target="EQDM87N76zZjlXknVHCu-72">
          <mxGeometry relative="1" as="geometry">
            <Array as="points">
              <mxPoint x="423" y="959" />
            </Array>
          </mxGeometry>
        </mxCell>
        <mxCell id="EQDM87N76zZjlXknVHCu-1" value="&lt;div&gt;Customer&lt;/div&gt;" style="shape=umlActor;verticalLabelPosition=bottom;verticalAlign=top;html=1;outlineConnect=0;" vertex="1" parent="1">
          <mxGeometry x="408" y="511" width="30" height="60" as="geometry" />
        </mxCell>
        <mxCell id="EQDM87N76zZjlXknVHCu-79" style="edgeStyle=orthogonalEdgeStyle;rounded=0;orthogonalLoop=1;jettySize=auto;html=1;fillColor=#ffcd28;strokeColor=#d79b00;gradientColor=#ffa500;" edge="1" parent="1" source="EQDM87N76zZjlXknVHCu-2" target="EQDM87N76zZjlXknVHCu-43">
          <mxGeometry relative="1" as="geometry">
            <Array as="points">
              <mxPoint x="880" y="550" />
            </Array>
          </mxGeometry>
        </mxCell>
        <mxCell id="EQDM87N76zZjlXknVHCu-82" style="edgeStyle=orthogonalEdgeStyle;rounded=0;orthogonalLoop=1;jettySize=auto;html=1;entryX=1;entryY=0.5;entryDx=0;entryDy=0;fillColor=#ffcd28;strokeColor=#d79b00;gradientColor=#ffa500;" edge="1" parent="1" source="EQDM87N76zZjlXknVHCu-2" target="EQDM87N76zZjlXknVHCu-77">
          <mxGeometry relative="1" as="geometry" />
        </mxCell>
        <mxCell id="EQDM87N76zZjlXknVHCu-86" style="edgeStyle=orthogonalEdgeStyle;rounded=0;orthogonalLoop=1;jettySize=auto;html=1;fontColor=#FFFFFF;fillColor=#ffcd28;gradientColor=#ffa500;strokeColor=#d79b00;" edge="1" parent="1" source="EQDM87N76zZjlXknVHCu-2" target="EQDM87N76zZjlXknVHCu-84">
          <mxGeometry relative="1" as="geometry">
            <Array as="points">
              <mxPoint x="1205" y="290" />
              <mxPoint x="950" y="290" />
              <mxPoint x="950" y="335" />
            </Array>
          </mxGeometry>
        </mxCell>
        <mxCell id="EQDM87N76zZjlXknVHCu-2" value="Moderator" style="shape=umlActor;verticalLabelPosition=bottom;verticalAlign=top;html=1;outlineConnect=0;fillColor=#ffcd28;strokeColor=#d79b00;gradientColor=#ffa500;" vertex="1" parent="1">
          <mxGeometry x="1189.9999999999998" y="501" width="30" height="60" as="geometry" />
        </mxCell>
        <mxCell id="EQDM87N76zZjlXknVHCu-4" value="&lt;div&gt;Cuistonaute&lt;/div&gt;" style="text;html=1;strokeColor=none;fillColor=none;align=center;verticalAlign=middle;whiteSpace=wrap;rounded=0;" vertex="1" parent="1">
          <mxGeometry x="770" y="180" width="60" height="30" as="geometry" />
        </mxCell>
        <mxCell id="EQDM87N76zZjlXknVHCu-12" value="search recipe" style="ellipse;whiteSpace=wrap;html=1;" vertex="1" parent="1">
          <mxGeometry x="520" y="300" width="140" height="70" as="geometry" />
        </mxCell>
        <mxCell id="EQDM87N76zZjlXknVHCu-25" value="&amp;lt;&amp;lt;extend&amp;gt;&amp;gt;" style="edgeStyle=orthogonalEdgeStyle;rounded=0;orthogonalLoop=1;jettySize=auto;html=1;entryX=0;entryY=0.5;entryDx=0;entryDy=0;" edge="1" parent="1" source="EQDM87N76zZjlXknVHCu-13" target="EQDM87N76zZjlXknVHCu-24">
          <mxGeometry relative="1" as="geometry" />
        </mxCell>
        <mxCell id="EQDM87N76zZjlXknVHCu-13" value="sort recipes" style="ellipse;whiteSpace=wrap;html=1;" vertex="1" parent="1">
          <mxGeometry x="520" y="380" width="140" height="70" as="geometry" />
        </mxCell>
        <mxCell id="EQDM87N76zZjlXknVHCu-27" value="&amp;lt;&amp;lt;include&amp;gt;&amp;gt;" style="edgeStyle=orthogonalEdgeStyle;rounded=0;orthogonalLoop=1;jettySize=auto;html=1;" edge="1" parent="1" target="EQDM87N76zZjlXknVHCu-26">
          <mxGeometry relative="1" as="geometry">
            <mxPoint x="901" y="426" as="sourcePoint" />
          </mxGeometry>
        </mxCell>
        <mxCell id="EQDM87N76zZjlXknVHCu-24" value="Recipes registered" style="ellipse;whiteSpace=wrap;html=1;" vertex="1" parent="1">
          <mxGeometry x="761" y="380" width="140" height="70" as="geometry" />
        </mxCell>
        <mxCell id="EQDM87N76zZjlXknVHCu-26" value="Authentification" style="ellipse;whiteSpace=wrap;html=1;" vertex="1" parent="1">
          <mxGeometry x="970" y="561" width="140" height="70" as="geometry" />
        </mxCell>
        <mxCell id="EQDM87N76zZjlXknVHCu-28" value="&lt;div&gt;Adapt the recipe&lt;/div&gt;&lt;div&gt;according to the number of people&lt;br&gt;&lt;/div&gt;" style="ellipse;whiteSpace=wrap;html=1;" vertex="1" parent="1">
          <mxGeometry x="520" y="470" width="140" height="70" as="geometry" />
        </mxCell>
        <mxCell id="EQDM87N76zZjlXknVHCu-30" value="&lt;div&gt;See other users profile&amp;nbsp; &lt;br&gt;&lt;/div&gt;" style="ellipse;whiteSpace=wrap;html=1;" vertex="1" parent="1">
          <mxGeometry x="520" y="650" width="140" height="70" as="geometry" />
        </mxCell>
        <mxCell id="EQDM87N76zZjlXknVHCu-32" value="Set results by page" style="ellipse;whiteSpace=wrap;html=1;" vertex="1" parent="1">
          <mxGeometry x="523" y="740" width="140" height="70" as="geometry" />
        </mxCell>
        <mxCell id="EQDM87N76zZjlXknVHCu-34" value="Newsletter registering" style="ellipse;whiteSpace=wrap;html=1;" vertex="1" parent="1">
          <mxGeometry x="520" y="840" width="140" height="70" as="geometry" />
        </mxCell>
        <mxCell id="EQDM87N76zZjlXknVHCu-36" value="&lt;div&gt;Setting theme&lt;/div&gt;&lt;div&gt;light/dark&lt;br&gt;&lt;/div&gt;" style="ellipse;whiteSpace=wrap;html=1;" vertex="1" parent="1">
          <mxGeometry x="523" y="220" width="140" height="70" as="geometry" />
        </mxCell>
        <mxCell id="EQDM87N76zZjlXknVHCu-48" value="&amp;lt;&amp;lt;extend&amp;gt;&amp;gt;" style="edgeStyle=orthogonalEdgeStyle;rounded=0;orthogonalLoop=1;jettySize=auto;html=1;entryX=0;entryY=0.5;entryDx=0;entryDy=0;" edge="1" parent="1" source="EQDM87N76zZjlXknVHCu-40" target="EQDM87N76zZjlXknVHCu-43">
          <mxGeometry x="0.2252" relative="1" as="geometry">
            <Array as="points">
              <mxPoint x="800" y="645" />
            </Array>
            <mxPoint as="offset" />
          </mxGeometry>
        </mxCell>
        <mxCell id="EQDM87N76zZjlXknVHCu-54" value="&amp;lt;&amp;lt;extend&amp;gt;&amp;gt;" style="edgeStyle=orthogonalEdgeStyle;rounded=0;orthogonalLoop=1;jettySize=auto;html=1;" edge="1" parent="1" source="EQDM87N76zZjlXknVHCu-40" target="EQDM87N76zZjlXknVHCu-53">
          <mxGeometry y="10" relative="1" as="geometry">
            <Array as="points">
              <mxPoint x="840" y="500" />
              <mxPoint x="840" y="500" />
            </Array>
            <mxPoint as="offset" />
          </mxGeometry>
        </mxCell>
        <mxCell id="EQDM87N76zZjlXknVHCu-40" value="Create account" style="ellipse;whiteSpace=wrap;html=1;" vertex="1" parent="1">
          <mxGeometry x="670" y="470" width="140" height="70" as="geometry" />
        </mxCell>
        <mxCell id="EQDM87N76zZjlXknVHCu-57" value="&amp;lt;&amp;lt;include&amp;gt;&amp;gt;" style="edgeStyle=orthogonalEdgeStyle;rounded=0;orthogonalLoop=1;jettySize=auto;html=1;entryX=0.5;entryY=1;entryDx=0;entryDy=0;" edge="1" parent="1" source="EQDM87N76zZjlXknVHCu-43" target="EQDM87N76zZjlXknVHCu-26">
          <mxGeometry x="-0.1489" relative="1" as="geometry">
            <Array as="points">
              <mxPoint x="1040" y="645" />
            </Array>
            <mxPoint as="offset" />
          </mxGeometry>
        </mxCell>
        <mxCell id="EQDM87N76zZjlXknVHCu-43" value="Delete account" style="ellipse;whiteSpace=wrap;html=1;" vertex="1" parent="1">
          <mxGeometry x="820" y="610" width="140" height="70" as="geometry" />
        </mxCell>
        <mxCell id="EQDM87N76zZjlXknVHCu-56" value="&amp;lt;&amp;lt;include&amp;gt;&amp;gt;" style="edgeStyle=orthogonalEdgeStyle;rounded=0;orthogonalLoop=1;jettySize=auto;html=1;entryX=0.064;entryY=0.286;entryDx=0;entryDy=0;entryPerimeter=0;" edge="1" parent="1" source="EQDM87N76zZjlXknVHCu-53" target="EQDM87N76zZjlXknVHCu-26">
          <mxGeometry relative="1" as="geometry">
            <Array as="points">
              <mxPoint x="900" y="581" />
            </Array>
          </mxGeometry>
        </mxCell>
        <mxCell id="EQDM87N76zZjlXknVHCu-53" value="&lt;div&gt;Account settings&lt;/div&gt;" style="ellipse;whiteSpace=wrap;html=1;" vertex="1" parent="1">
          <mxGeometry x="870" y="470" width="140" height="70" as="geometry" />
        </mxCell>
        <mxCell id="EQDM87N76zZjlXknVHCu-65" value="&amp;lt;&amp;lt;include&amp;gt;&amp;gt;" style="edgeStyle=orthogonalEdgeStyle;rounded=0;orthogonalLoop=1;jettySize=auto;html=1;" edge="1" parent="1" source="EQDM87N76zZjlXknVHCu-58" target="EQDM87N76zZjlXknVHCu-26">
          <mxGeometry x="-0.5116" relative="1" as="geometry">
            <mxPoint as="offset" />
          </mxGeometry>
        </mxCell>
        <mxCell id="EQDM87N76zZjlXknVHCu-58" value="Create and setting new recipes " style="ellipse;whiteSpace=wrap;html=1;" vertex="1" parent="1">
          <mxGeometry x="818" y="686" width="140" height="70" as="geometry" />
        </mxCell>
        <mxCell id="EQDM87N76zZjlXknVHCu-66" value="&amp;lt;&amp;lt;include&amp;gt;&amp;gt;" style="edgeStyle=orthogonalEdgeStyle;rounded=0;orthogonalLoop=1;jettySize=auto;html=1;" edge="1" parent="1" source="EQDM87N76zZjlXknVHCu-60" target="EQDM87N76zZjlXknVHCu-26">
          <mxGeometry x="-0.6762" relative="1" as="geometry">
            <mxPoint as="offset" />
          </mxGeometry>
        </mxCell>
        <mxCell id="EQDM87N76zZjlXknVHCu-60" value="Write and editing comments " style="ellipse;whiteSpace=wrap;html=1;" vertex="1" parent="1">
          <mxGeometry x="820" y="763" width="140" height="70" as="geometry" />
        </mxCell>
        <mxCell id="EQDM87N76zZjlXknVHCu-70" value="&amp;lt;&amp;lt;include&amp;gt;&amp;gt;" style="edgeStyle=orthogonalEdgeStyle;rounded=0;orthogonalLoop=1;jettySize=auto;html=1;entryX=0.5;entryY=1;entryDx=0;entryDy=0;" edge="1" parent="1" source="EQDM87N76zZjlXknVHCu-61" target="EQDM87N76zZjlXknVHCu-26">
          <mxGeometry x="-0.7605" relative="1" as="geometry">
            <mxPoint as="offset" />
          </mxGeometry>
        </mxCell>
        <mxCell id="EQDM87N76zZjlXknVHCu-61" value="Save diets" style="ellipse;whiteSpace=wrap;html=1;" vertex="1" parent="1">
          <mxGeometry x="820" y="850" width="140" height="70" as="geometry" />
        </mxCell>
        <mxCell id="EQDM87N76zZjlXknVHCu-74" value="&amp;lt;&amp;lt;include&amp;gt;&amp;gt;" style="edgeStyle=orthogonalEdgeStyle;rounded=0;orthogonalLoop=1;jettySize=auto;html=1;" edge="1" parent="1" source="EQDM87N76zZjlXknVHCu-72" target="EQDM87N76zZjlXknVHCu-26">
          <mxGeometry x="-0.0946" relative="1" as="geometry">
            <mxPoint as="offset" />
          </mxGeometry>
        </mxCell>
        <mxCell id="EQDM87N76zZjlXknVHCu-72" value="Save recipe" style="ellipse;whiteSpace=wrap;html=1;" vertex="1" parent="1">
          <mxGeometry x="519" y="924" width="140" height="70" as="geometry" />
        </mxCell>
        <mxCell id="EQDM87N76zZjlXknVHCu-89" value="" style="edgeStyle=orthogonalEdgeStyle;rounded=0;orthogonalLoop=1;jettySize=auto;html=1;entryX=1;entryY=0;entryDx=0;entryDy=0;fontColor=#FFFFFF;fillColor=#ffcd28;gradientColor=#ffa500;strokeColor=#d79b00;" edge="1" parent="1" source="EQDM87N76zZjlXknVHCu-77" target="EQDM87N76zZjlXknVHCu-26">
          <mxGeometry x="0.2614" relative="1" as="geometry">
            <Array as="points">
              <mxPoint x="1090" y="470" />
              <mxPoint x="1090" y="470" />
            </Array>
            <mxPoint as="offset" />
          </mxGeometry>
        </mxCell>
        <mxCell id="EQDM87N76zZjlXknVHCu-77" value="Manage comments " style="ellipse;whiteSpace=wrap;html=1;fillColor=#ffcd28;strokeColor=#d79b00;gradientColor=#ffa500;" vertex="1" parent="1">
          <mxGeometry x="958" y="300" width="140" height="70" as="geometry" />
        </mxCell>
        <mxCell id="EQDM87N76zZjlXknVHCu-87" style="edgeStyle=orthogonalEdgeStyle;rounded=0;orthogonalLoop=1;jettySize=auto;html=1;fontColor=#FFFFFF;fillColor=#ffcd28;gradientColor=#ffa500;strokeColor=#d79b00;entryX=0.026;entryY=0.341;entryDx=0;entryDy=0;entryPerimeter=0;exitX=0.064;exitY=0.345;exitDx=0;exitDy=0;exitPerimeter=0;" edge="1" parent="1" source="EQDM87N76zZjlXknVHCu-84" target="EQDM87N76zZjlXknVHCu-58">
          <mxGeometry relative="1" as="geometry">
            <mxPoint x="757.0000988631446" y="324.0588235294117" as="sourcePoint" />
            <mxPoint x="814.0000988631441" y="710.0588235294117" as="targetPoint" />
            <Array as="points">
              <mxPoint x="770" y="335" />
              <mxPoint x="666" y="335" />
              <mxPoint x="666" y="710" />
            </Array>
          </mxGeometry>
        </mxCell>
        <mxCell id="EQDM87N76zZjlXknVHCu-92" value="&amp;lt;&amp;lt;include &amp;gt;&amp;gt;" style="edgeLabel;html=1;align=center;verticalAlign=middle;resizable=0;points=[];fontColor=#000000;" vertex="1" connectable="0" parent="EQDM87N76zZjlXknVHCu-87">
          <mxGeometry x="0.1461" y="-1" relative="1" as="geometry">
            <mxPoint x="-5" y="41" as="offset" />
          </mxGeometry>
        </mxCell>
        <mxCell id="EQDM87N76zZjlXknVHCu-93" value="&amp;lt;&amp;lt;include&amp;gt;&amp;gt;" style="edgeStyle=orthogonalEdgeStyle;rounded=0;orthogonalLoop=1;jettySize=auto;html=1;entryX=0.714;entryY=0.057;entryDx=0;entryDy=0;entryPerimeter=0;fontColor=#000000;exitX=0.5;exitY=1;exitDx=0;exitDy=0;exitPerimeter=0;fillColor=#ffcd28;gradientColor=#ffa500;strokeColor=#d79b00;" edge="1" parent="1" source="EQDM87N76zZjlXknVHCu-84">
          <mxGeometry x="-0.4351" y="-5" relative="1" as="geometry">
            <mxPoint x="831" y="375" as="sourcePoint" />
            <mxPoint x="1069.96" y="569.99" as="targetPoint" />
            <Array as="points">
              <mxPoint x="831" y="375" />
              <mxPoint x="1070" y="375" />
            </Array>
            <mxPoint as="offset" />
          </mxGeometry>
        </mxCell>
        <mxCell id="EQDM87N76zZjlXknVHCu-84" value="Validate recipes" style="ellipse;whiteSpace=wrap;html=1;fillColor=#ffcd28;gradientColor=#ffa500;strokeColor=#d79b00;" vertex="1" parent="1">
          <mxGeometry x="761" y="300" width="140" height="70" as="geometry" />
        </mxCell>
        <mxCell id="EQDM87N76zZjlXknVHCu-94" value="Text" style="text;html=1;resizable=0;autosize=1;align=center;verticalAlign=middle;points=[];fillColor=none;strokeColor=none;rounded=0;fontColor=#1A1A1A;" vertex="1" parent="1">
          <mxGeometry x="930" y="450" width="40" height="20" as="geometry" />
        </mxCell>
        <mxCell id="EQDM87N76zZjlXknVHCu-98" value="&amp;lt;&amp;lt;include&amp;gt;&amp;gt;" style="text;html=1;resizable=0;autosize=1;align=center;verticalAlign=middle;points=[];fillColor=none;strokeColor=none;rounded=0;fontColor=#1A1A1A;rotation=90;" vertex="1" parent="1">
          <mxGeometry x="1061.33" y="491" width="80" height="20" as="geometry" />
        </mxCell>
      </root>
    </mxGraphModel>
  </diagram>
</mxfile>
